<svg width="37" height="44" viewBox="0 0 37 44" fill="none" xmlns="http://www.w3.org/2000/svg">
<path d="M31.5082 18.6102L31.5393 19.5781H32.5077H33.4724C34.696 19.5781 35.6879 20.5701 35.6879 21.7937V39.9935C35.6879 41.2171 34.696 42.2091 33.4724 42.2091H3.95381C2.73021 42.2091 1.73828 41.2172 1.73828 39.9935V21.7937C1.73828 20.5701 2.73021 19.5781 3.95381 19.5781H4.98278H5.98278V18.5781V14.7466C5.98278 12.6955 6.48366 10.6753 7.44191 8.86171C9.31512 5.31643 12.7643 2.87471 16.7306 2.28607L17.2627 2.20709C18.3431 2.04676 19.4398 2.02896 20.5247 2.15415L20.8361 2.19008C24.7075 2.63677 28.1135 4.95385 29.9507 8.39061C30.811 9.99987 31.289 11.7857 31.3476 13.6095L31.5082 18.6102Z" stroke="#BD00FF" stroke-width="2"/>
<path d="M25.7951 16.416L25.8502 18.2424H11.5825V17.2737C11.5825 15.7333 11.9385 14.2138 12.6228 12.8338L13.1773 11.7155C13.8148 10.4298 14.8664 9.39589 16.1629 8.78033L16.3128 8.70911L15.8839 7.80577L16.3128 8.70911C18.0538 7.8825 20.0839 7.93255 21.782 8.84394C22.9262 9.45801 23.843 10.4231 24.3976 11.5972L24.8861 12.6313C25.4462 13.8169 25.7556 15.1054 25.7951 16.416Z" stroke="#BD00FF" stroke-width="2"/>
</svg>
