<svg width="34" height="28" viewBox="0 0 34 28" fill="none" xmlns="http://www.w3.org/2000/svg">
<path d="M28.2217 6.58924H7.53854C7.25993 6.58924 7.03407 6.8151 7.03407 7.09371C7.03407 7.37232 7.25993 7.59818 7.53854 7.59818H31.2485C32.3629 7.59818 33.2663 8.50161 33.2663 9.61604V24.75C33.2663 25.8645 32.3629 26.7679 31.2485 26.7679H2.99834C1.8839 26.7679 0.980469 25.8645 0.980469 24.75V2.55351C0.980469 1.43907 1.8839 0.535645 2.99833 0.535645H28.2217C29.3361 0.535645 30.2395 1.43907 30.2395 2.55351V4.57138C30.2395 5.68581 29.3361 6.58924 28.2217 6.58924Z" fill="white" stroke="#E0E0E0" stroke-width="0.504467" stroke-linecap="round"/>
<rect x="25.1953" y="15.6694" width="4.03573" height="4.03573" fill="#C2C2C2"/>
</svg>
